<svg xmlns="http://www.w3.org/2000/svg" viewBox="0 0 24 24" fill="none" stroke="currentColor" stroke-width="2" stroke-linecap="round" stroke-linejoin="round" class="lucide lucide-droplets">
  <path d="M7 16.3c2.2 0 4-1.83 4-4.05 0-1.16-.57-2.26-1.71-3.19S7.29 6.75 7 5.3c-.29 1.45-1.14 2.84-2.29 3.76S3 11.1 3 12.25c0 2.22 1.8 4.05 4 4.05z"/>
  <path d="M12.56 6.6A10.97 10.97 0 0 0 14 3.02c.5 2.5 2.04 4.6 4.14 5.93a7.1 7.1 0 0 1 2.37 3.05c.33 1.06.43 2.17.32 3.25a6.91 6.91 0 0 1-1.76 3.87c-.77.94-1.8 1.67-2.96 2.11"/>
</svg>